# xmcd CD database file
#
# Track frame offsets:
#	150
#	15310
#	29572
#	45385
#	63160
#	77880
#	90510
#	109567
#	129100
#	145922
#
# Disc length: 2123 seconds
#
# Revision: 0
# Processed by: cddbd v1.5.1PL0 Copyright (c) Steve Scherf et al.
# Submitted via: CDex 1.51
#
DISCID=6f08490a
DTITLE=Johnson, Julie - All Grown Up... So Far
DYEAR=2001
DGENRE=Country
TTITLE0=New Millennium
TTITLE1=Phone If You Want To
TTITLE2=Man from Texas
TTITLE3=Easy
TTITLE4=Don't You Know
TTITLE5=Double Back
TTITLE6=Love in 3/4 Time
TTITLE7=Strangers Once Again
TTITLE8=All Grown Up... So Far
TTITLE9=Easy Love, Easy Go
EXTD=YEAR: 2001
EXTT0=
EXTT1=
EXTT2=
EXTT3=
EXTT4=
EXTT5=
EXTT6=
EXTT7=
EXTT8=
EXTT9=
PLAYORDER=
